<?xml version="1.0" encoding="UTF-8"?>
<svg xmlns="http://www.w3.org/2000/svg" width="152" height="74" viewBox="0 0 152 74" fill="none">
  <g clip-path="url(#clip0_288_453)">
    <path d="M17.4667 55.7377C7.26476 55.7377 0 50.6585 0 41.768C0 32.8774 8.06857 26.0606 16.8 22.9863C16.1333 21.7184 15.7333 20.1145 15.7333 18.2432C15.7333 7.95489 28.8686 0 42.6019 0C51.2686 0 55.0705 3.74258 55.0705 8.08856C55.0705 15.7761 44.0038 19.786 40.2019 19.786C39.4667 19.786 39.0667 19.5874 39.0667 19.3163C39.0667 18.8466 39.6686 18.7129 40.8 18.5143C46.2667 17.445 53.4019 13.901 53.4019 8.22222C53.4019 4.47964 49.7371 1.33664 42.2667 1.33664C30.2667 1.33664 18.1333 8.55447 18.1333 18.0446C18.1333 19.7173 18.5333 21.1189 19.1314 22.3218C21.7333 21.5886 24.4 21.2525 26.8 21.2525C31.0667 21.2525 33.6 22.5891 33.6 25.0638C33.6 27.3361 30.8 28.6728 27.4667 28.6728C24.1333 28.6728 20 27.401 17.6648 24.3268C9.79809 27.2674 2.52952 33.5496 2.52952 41.703C2.52952 49.8565 9.3981 54.1338 17.8629 54.1338C27.0629 54.1338 36.7314 48.9209 43.7295 38.7624C44.0648 38.2965 44.3962 38.0292 44.6629 38.0292C44.9295 38.0292 45.1314 38.2278 45.1314 38.6975C45.1314 39.1673 44.3314 40.7025 42.8 42.6425C38.8648 47.7217 29.9314 55.7416 17.4667 55.7416V55.7377ZM20 23.5897C21.9314 26.0644 25.2 27.2636 28.2019 27.2636C30.2667 27.2636 31.8667 26.4616 31.8667 24.9913C31.8667 23.3186 30.1981 22.5166 27.0667 22.5166C24.8648 22.5166 22.4 22.9176 20 23.5859V23.5897Z" fill="#F1F0F2"></path>
    <path d="M46.9333 50.7273C44.1333 50.7273 42.1333 49.0546 42.1333 45.4457C42.1333 41.1684 44.4647 36.2878 51.8666 25.5298C59.3333 14.8367 65.6 6.68323 67.2685 6.68323C67.4019 6.68323 67.5352 6.75197 67.5352 6.95056C67.5352 7.61887 66.4685 9.62383 63.9352 13.5001C58.0685 22.6579 50.7352 32.7476 45.9352 38.6288C43.9352 42.4402 43.9352 43.9754 43.9352 45.312C43.9352 48.1877 45.3371 49.1233 47.2685 49.1233C51.0704 49.0584 55.5352 45.2471 60.0685 38.4952C60.2704 38.1591 60.5371 38.0254 60.7352 38.0254C61.1352 38.0254 61.4019 38.3615 61.4019 38.7587C61.4019 39.7592 54.1333 50.7235 46.9333 50.7235V50.7273Z" fill="#F1F0F2"></path>
    <path d="M69.9999 51.6629C63.398 51.6629 59.1313 48.0539 59.1313 42.906C59.1313 35.1535 68.2666 26.7976 76.8647 26.7976C80.198 26.7976 81.9313 28.604 81.9313 31.1436C81.9313 36.7575 75.2647 41.6381 67.7294 41.6381C65.4628 41.6381 63.2609 41.3708 61.5961 40.3664C61.398 41.2333 61.2609 42.104 61.2609 43.0396C61.2609 47.0496 64.6628 50.1926 70.2628 50.1926C77.5961 50.1926 81.9961 45.9802 87.0628 38.4951C87.2609 38.159 87.5313 38.0254 87.7294 38.0254C88.198 38.0254 88.3961 38.3614 88.3961 38.6937C88.3961 39.1634 87.398 40.565 86.0647 42.4363C83.2647 46.3125 78.3961 51.659 69.9961 51.659L69.9999 51.6629ZM61.9313 39.2971C63.5999 40.0303 65.1999 40.2976 67.0666 40.2976C73.8018 40.2976 80.0685 36.0204 80.0685 31.0061C80.0685 29.0661 78.8037 28.0655 76.6018 28.0655C71.1999 28.0655 64.0685 33.0111 61.9352 39.2932L61.9313 39.2971Z" fill="#F1F0F2"></path>
    <path d="M104.468 50.7273C101.333 50.7273 99.0018 48.9209 99.0018 45.312C99.0018 40.0304 104.27 33.0799 107.002 29.2724C103.535 31.1437 100.133 35.1536 97.0018 38.8961C92.1332 44.7124 87.9999 50.7273 84.9332 50.7273C83.4665 50.7273 82.5332 49.7916 82.5332 48.1877C82.5332 43.9754 87.398 36.8263 92.7999 30.5441C93.2684 30.0094 93.7332 29.8108 94.1332 29.8108C94.5332 29.8108 94.7999 30.0782 94.7999 30.4792C94.7999 30.8152 94.6665 31.2124 94.2018 31.7509C88.3351 38.4341 84.4684 44.9836 84.4684 48.2602C84.4684 48.9286 84.7351 49.2608 85.337 49.2608C87.0056 49.2608 91.337 43.5782 95.9389 38.0331C100.407 32.6865 105.207 27.6073 107.874 27.6073C108.739 27.6073 109.406 28.142 109.406 28.7453C109.406 29.0127 109.272 29.3487 109.07 29.6161C106.739 32.7591 101.07 40.0418 101.07 45.3235C101.07 47.8631 102.606 49.3334 104.606 49.3334C108.472 49.3334 113.074 45.2547 117.607 38.5066C117.806 38.1705 118.076 38.0369 118.274 38.0369C118.674 38.0369 118.941 38.3729 118.941 38.7701C118.941 39.7707 111.672 50.7349 104.472 50.7349L104.468 50.7273Z" fill="#F1F0F2"></path>
    <path d="M132.868 44.3763C129.535 48.3213 125.6 51.3955 122.267 51.3955C118.331 51.3955 116.267 48.5237 116.267 44.2426C116.267 36.1541 125.802 26.7976 133.802 26.7976C137.467 26.7976 139.337 28.1342 140.937 29.807C142.404 28.0006 143.672 26.7976 144.27 26.7976C144.804 26.7976 144.868 27.0649 144.868 27.5996C144.868 29.406 139.535 36.956 135.535 41.3669C134.735 43.0396 134.602 44.3763 134.602 45.7129C134.602 48.1189 135.867 49.1882 137.737 49.1882C141.737 49.1882 146.072 45.3119 150.67 38.4951C150.869 38.159 151.135 38.0254 151.337 38.0254C151.737 38.0254 152.004 38.3614 152.004 38.7586C152.004 39.7592 144.735 50.7234 137.535 50.7234C135.002 50.7234 132.8 49.0507 132.8 45.4418C132.8 45.1057 132.865 44.7735 132.865 44.3725L132.868 44.3763ZM122.602 49.9902C126.267 49.9902 130.404 45.6442 134.004 40.8323C135.337 37.8917 137.406 34.4814 139.406 31.7432C138.804 29.8031 137.074 27.9318 133.87 27.9318C126.67 27.9318 118.27 37.422 118.27 44.1739C118.27 47.8515 119.672 49.9902 122.606 49.9902H122.602Z" fill="#F1F0F2"></path>
    <path d="M0.921875 61.9894H6.23235V62.8983H1.85521V65.8198H6.23235V66.7287H1.85521V70.4025H6.23235V71.3115H0.921875V61.9894Z" fill="#F1F0F2"></path>
    <path d="M7.06289 64.4182H8.00765L10.3124 69.4287L12.5905 64.4182H13.5353L10.3886 71.3114H10.2324L7.05908 64.4182H7.06289Z" fill="#F1F0F2"></path>
    <path d="M15.4667 67.9393C15.5048 69.5242 16.5791 70.6775 18.0572 70.6775C19.5353 70.6775 20.1829 69.8603 20.6858 69.0277L21.4248 69.4173C20.7239 70.7921 19.6496 71.4833 18.1486 71.4833C15.8705 71.4833 14.5601 69.7304 14.5601 67.8859C14.5601 66.0413 15.9467 64.2388 18.0953 64.2388C20.0496 64.2388 21.6305 65.6556 21.6572 67.9393H15.4667ZM20.6858 67.1603C20.3239 65.732 19.2991 65.0942 18.1067 65.0942C16.9143 65.0942 15.9582 65.7549 15.5543 67.1603H20.682H20.6858Z" fill="#F1F0F2"></path>
    <path d="M23.8856 65.4188C24.4037 64.6665 24.9599 64.2388 25.6608 64.2388C26.0608 64.2388 26.2703 64.3686 26.4494 64.4717L25.9846 65.2241C25.8818 65.1706 25.7141 65.0942 25.5199 65.0942C24.8722 65.0942 24.2894 65.6518 24.0303 66.5989C23.9122 67.0419 23.8894 67.756 23.8894 68.6879V71.3115H22.9561V64.4183H23.8894V65.4188H23.8856Z" fill="#F1F0F2"></path>
    <path d="M26.4648 64.4182H27.3982L29.7677 69.7266L32.061 64.4182H33.0058L28.8991 73.832H27.9658L29.2877 70.7921L26.4648 64.4182Z" fill="#F1F0F2"></path>
    <path d="M34.9334 61.848H35.8134V64.4182H37.2267V65.1973H35.8134V71.3114H34.9334V65.1973H33.7144V64.4182H34.9334V61.848Z" fill="#F1F0F2"></path>
    <path d="M38.5371 61.7564H39.4171V65.6517C40.1295 64.7161 40.9714 64.2349 41.9962 64.2349C43.4857 64.2349 44.5333 65.2851 44.5333 67.3512V71.3114H43.6533V67.5574C43.6533 65.9343 43.1619 65.0369 41.8285 65.0369C41.0895 65.0369 40.48 65.3615 40.0152 65.9725C39.5085 66.6332 39.4209 67.3092 39.4209 68.4128V71.3076H38.5409V61.7526L38.5371 61.7564Z" fill="#F1F0F2"></path>
    <path d="M47.4858 62.3025C47.4858 62.7035 47.1506 63.0434 46.7468 63.0434C46.3429 63.0434 46.0229 62.7073 46.0229 62.3025C46.0229 61.8977 46.3582 61.5769 46.7468 61.5769C47.1353 61.5769 47.4858 61.9015 47.4858 62.3025ZM46.3201 64.4182H47.2001V71.3114H46.3201V64.4182Z" fill="#F1F0F2"></path>
    <path d="M49.9084 65.6517C50.6208 64.7161 51.4741 64.2349 52.4875 64.2349C53.9884 64.2349 55.0398 65.2736 55.0398 67.4428V71.3114H54.1598V67.5574C54.1598 65.9343 53.6532 65.0368 52.3198 65.0368C51.5808 65.0368 50.9713 65.3615 50.5065 65.9725C49.9884 66.6484 49.9122 67.3244 49.9122 68.4128V71.3076H49.0322V64.4144H49.9122V65.6479L49.9084 65.6517Z" fill="#F1F0F2"></path>
    <path d="M63.7524 69.9098C63.7524 71.0403 63.6877 71.9759 63.1315 72.7397C62.5486 73.5302 61.5239 73.9999 60.2172 73.9999C58.2362 73.9999 57.2762 73.1941 56.6705 71.8575H57.6305C58.1486 72.7664 58.9524 73.1941 60.1677 73.1941C61.3067 73.1941 62.1486 72.7779 62.5639 72.0255C62.8229 71.5444 62.861 71.0517 62.861 70.5209V70.0015C62.1753 70.8722 61.1772 71.3114 60.1029 71.3114C58.1981 71.3114 56.5791 69.8564 56.5791 67.8171C56.5791 65.7777 58.2743 64.2349 60.1029 64.2349C61.322 64.2349 62.1372 64.7542 62.861 65.6097V64.4144H63.7562V69.906L63.7524 69.9098ZM57.4858 67.8705C57.4858 69.2453 58.4572 70.456 60.2705 70.456C61.7715 70.456 62.8991 69.4172 62.8991 67.8056C62.8991 66.194 61.6686 65.0941 60.2439 65.0941C58.701 65.0941 57.4858 66.2742 57.4858 67.8705Z" fill="#F1F0F2"></path>
    <path d="M69.2344 61.7564H70.1144V65.6517C70.8268 64.7161 71.6687 64.2349 72.6934 64.2349C74.1829 64.2349 75.2306 65.2851 75.2306 67.3512V71.3114H74.3506V67.5574C74.3506 65.9343 73.8591 65.0369 72.5258 65.0369C71.7868 65.0369 71.1772 65.3615 70.7125 65.9725C70.2058 66.6332 70.1182 67.3092 70.1182 68.4128V71.3076H69.2382V61.7526L69.2344 61.7564Z" fill="#F1F0F2"></path>
    <path d="M83.116 64.4183H83.9846V71.3115H83.116V70.1314C82.3655 71.0403 81.4208 71.4833 80.3427 71.4833C78.335 71.4833 76.8188 69.8068 76.8188 67.8477C76.8188 65.8886 78.3731 64.2388 80.3693 64.2388C81.4817 64.2388 82.4303 64.72 83.116 65.6785V64.4183ZM77.7293 67.8706C77.7293 69.3638 78.895 70.6737 80.4379 70.6737C81.8512 70.6737 83.1846 69.6082 83.1846 67.8973C83.1846 66.301 81.9922 65.0942 80.4531 65.0942C78.9141 65.0942 77.7331 66.3927 77.7331 67.8706H77.7293Z" fill="#F1F0F2"></path>
    <path d="M85.8894 69.8717C86.3313 70.3644 86.8075 70.6393 87.3256 70.6393C87.9999 70.6393 88.5942 70.1467 88.5942 69.4975C88.5942 69.0965 88.3618 68.7184 88.0227 68.5351C86.4418 67.6529 85.638 67.2748 85.638 66.068C85.638 64.9758 86.4799 64.2388 87.5275 64.2388C88.278 64.2388 88.8494 64.6016 89.4323 65.1744L88.8608 65.7587C88.4456 65.3577 88.0303 65.098 87.4742 65.098C86.918 65.098 86.438 65.499 86.438 66.0184C86.438 66.3697 86.6589 66.7593 86.9675 66.9388C88.5484 67.8591 89.4284 68.2105 89.4284 69.4593C89.4284 70.5362 88.598 71.4986 87.3561 71.4986C86.5903 71.4986 85.8132 71.1473 85.3218 70.5133L85.878 69.8756L85.8894 69.8717Z" fill="#F1F0F2"></path>
    <path d="M100.575 64.4183H101.444V71.3115H100.575V70.1314C99.8246 71.0403 98.8798 71.4833 97.8055 71.4833C95.7979 71.4833 94.2817 69.8068 94.2817 67.8477C94.2817 65.8886 95.836 64.2388 97.8284 64.2388C98.9408 64.2388 99.8894 64.72 100.575 65.6785V64.4183ZM95.1884 67.8706C95.1884 69.3638 96.3541 70.6737 97.897 70.6737C99.3103 70.6737 100.644 69.6082 100.644 67.8973C100.644 66.301 99.4513 65.0942 97.9122 65.0942C96.3732 65.0942 95.1922 66.3927 95.1922 67.8706H95.1884Z" fill="#F1F0F2"></path>
    <path d="M107.611 65.4188C108.129 64.6665 108.685 64.2388 109.386 64.2388C109.786 64.2388 109.996 64.3686 110.175 64.4717L109.71 65.2241C109.607 65.1706 109.44 65.0942 109.245 65.0942C108.598 65.0942 108.015 65.6518 107.756 66.5989C107.638 67.0419 107.615 67.756 107.615 68.6879V71.3115H106.682V64.4183H107.615V65.4188H107.611Z" fill="#F1F0F2"></path>
    <path d="M111.459 67.9393C111.497 69.5242 112.571 70.6775 114.049 70.6775C115.527 70.6775 116.175 69.8603 116.678 69.0277L117.417 69.4173C116.716 70.7921 115.642 71.4833 114.141 71.4833C111.863 71.4833 110.552 69.7304 110.552 67.8859C110.552 66.0413 111.939 64.2388 114.087 64.2388C116.042 64.2388 117.623 65.6556 117.649 67.9393H111.459ZM116.678 67.1603C116.316 65.732 115.291 65.0942 114.099 65.0942C112.907 65.0942 111.95 65.7549 111.547 67.1603H116.674H116.678Z" fill="#F1F0F2"></path>
    <path d="M125.276 64.4183H126.145V71.3115H125.276V70.1314C124.526 71.0403 123.581 71.4833 122.507 71.4833C120.499 71.4833 118.983 69.8068 118.983 67.8477C118.983 65.8886 120.537 64.2388 122.53 64.2388C123.642 64.2388 124.591 64.72 125.276 65.6785V64.4183ZM119.89 67.8706C119.89 69.3638 121.055 70.6737 122.598 70.6737C124.011 70.6737 125.345 69.6082 125.345 67.8973C125.345 66.301 124.152 65.0942 122.613 65.0942C121.074 65.0942 119.893 66.3927 119.893 67.8706H119.89Z" fill="#F1F0F2"></path>
    <path d="M128.05 69.8717C128.491 70.3644 128.968 70.6393 129.486 70.6393C130.16 70.6393 130.754 70.1467 130.754 69.4975C130.754 69.0965 130.522 68.7184 130.183 68.5351C128.602 67.6529 127.798 67.2748 127.798 66.068C127.798 64.9758 128.64 64.2388 129.688 64.2388C130.438 64.2388 131.01 64.6016 131.592 65.1744L131.021 65.7587C130.606 65.3577 130.191 65.098 129.634 65.098C129.078 65.098 128.598 65.499 128.598 66.0184C128.598 66.3697 128.819 66.7593 129.128 66.9388C130.709 67.8591 131.589 68.2105 131.589 69.4593C131.589 70.5362 130.758 71.4986 129.516 71.4986C128.751 71.4986 127.973 71.1473 127.482 70.5133L128.038 69.8756L128.05 69.8717Z" fill="#F1F0F2"></path>
    <path d="M140.015 67.8859C140.015 69.845 138.499 71.4948 136.426 71.4948C134.354 71.4948 132.838 69.845 132.838 67.8859C132.838 65.9267 134.366 64.2388 136.426 64.2388C138.487 64.2388 140.015 65.9153 140.015 67.8859ZM133.748 67.8973C133.748 69.402 134.876 70.6355 136.43 70.6355C137.985 70.6355 139.112 69.402 139.112 67.8973C139.112 66.3927 137.893 65.0942 136.43 65.0942C134.967 65.0942 133.748 66.3659 133.748 67.8973Z" fill="#F1F0F2"></path>
    <path d="M142.53 65.6517C143.242 64.7161 144.095 64.2349 145.109 64.2349C146.61 64.2349 147.661 65.2736 147.661 67.4428V71.3114H146.781V67.5574C146.781 65.9343 146.274 65.0368 144.941 65.0368C144.202 65.0368 143.592 65.3615 143.128 65.9725C142.61 66.6484 142.533 67.3244 142.533 68.4128V71.3076H141.653V64.4144H142.533V65.6479L142.53 65.6517Z" fill="#F1F0F2"></path>
  </g>
  <defs>
    <clipPath id="clip0_288_453">
      <rect width="152" height="74" fill="white"></rect>
    </clipPath>
  </defs>
</svg>
