<?xml version="1.0" encoding="UTF-8"?>
<svg xmlns="http://www.w3.org/2000/svg" width="137" height="50" viewBox="0 0 137 50" fill="none">
  <g clip-path="url(#clip0_360_437)">
    <path d="M15.743 50C6.54784 50 0 45.4436 0 37.4683C0 29.493 7.27233 23.3779 15.1421 20.6201C14.5412 19.4827 14.1807 18.0439 14.1807 16.3652C14.1807 7.13601 26.0197 0 38.3978 0C46.2092 0 49.6359 3.35731 49.6359 7.25591C49.6359 14.1521 39.6613 17.7492 36.2346 17.7492C35.5719 17.7492 35.2114 17.5711 35.2114 17.3279C35.2114 16.9065 35.7539 16.7866 36.7737 16.6084C41.7009 15.6492 48.132 12.47 48.132 7.37581C48.132 4.0185 44.8289 1.19904 38.0956 1.19904C27.2798 1.19904 16.3439 7.67386 16.3439 16.1871C16.3439 17.6876 16.7044 18.9448 17.2435 20.024C19.5886 19.3662 21.9921 19.0647 24.1553 19.0647C28.0009 19.0647 30.2842 20.2638 30.2842 22.4837C30.2842 24.5221 27.7605 25.7211 24.7561 25.7211C21.7518 25.7211 18.0263 24.5803 15.9215 21.8225C8.83118 24.4604 2.2799 30.0959 2.2799 37.4101C2.2799 44.7242 8.47065 48.5612 16.1001 48.5612C24.3922 48.5612 33.1066 43.8849 39.4141 34.7722C39.7163 34.3542 40.015 34.1144 40.2553 34.1144C40.4957 34.1144 40.6777 34.2926 40.6777 34.7139C40.6777 35.1353 39.9566 36.5125 38.5763 38.2528C35.0294 42.8092 26.9777 50.0034 15.743 50.0034V50ZM18.0263 21.1614C19.7671 23.3813 22.7132 24.457 25.4188 24.457C27.2798 24.457 28.7219 23.7376 28.7219 22.4186C28.7219 20.9181 27.218 20.1987 24.3956 20.1987C22.411 20.1987 20.1895 20.5584 18.0263 21.1579V21.1614Z" fill="#19032B"></path>
    <path d="M42.3009 45.5053C39.7772 45.5053 37.9746 44.0048 37.9746 40.7674C37.9746 36.9305 40.076 32.5522 46.7474 22.9017C53.4772 13.3094 59.1255 5.99521 60.6294 5.99521C60.7496 5.99521 60.8697 6.05687 60.8697 6.23502C60.8697 6.83454 59.9083 8.6331 57.625 12.1103C52.3373 20.3255 45.7276 29.3765 41.4013 34.6523C39.5987 38.0713 39.5987 39.4484 39.5987 40.6475C39.5987 43.2271 40.8623 44.0665 42.6031 44.0665C46.0298 44.0082 50.054 40.5892 54.1399 34.5324C54.3219 34.2309 54.5623 34.111 54.7408 34.111C55.1013 34.111 55.3417 34.4125 55.3417 34.7688C55.3417 35.6663 48.7904 45.5019 42.3009 45.5019V45.5053Z" fill="#19032B"></path>
    <path d="M63.0929 46.3446C57.1425 46.3446 53.2969 43.1072 53.2969 38.4892C53.2969 31.5348 61.5306 24.0391 69.2802 24.0391C72.2846 24.0391 73.8469 25.6595 73.8469 27.9377C73.8469 32.9736 67.8381 37.3518 61.0465 37.3518C59.0035 37.3518 57.0189 37.112 55.5184 36.211C55.3399 36.9887 55.2162 37.7698 55.2162 38.6091C55.2162 42.2062 58.2824 45.0257 63.3298 45.0257C69.9395 45.0257 73.9052 41.247 78.4719 34.5324C78.6505 34.2309 78.8942 34.111 79.0728 34.111C79.4951 34.111 79.6737 34.4125 79.6737 34.7105C79.6737 35.1319 78.7741 36.3892 77.5723 38.0678C75.0486 41.5451 70.6605 46.3412 63.0895 46.3412L63.0929 46.3446ZM55.8206 35.2518C57.3245 35.9096 58.7666 36.1494 60.449 36.1494C66.5196 36.1494 72.1679 32.3124 72.1679 27.8143C72.1679 26.074 71.0279 25.1764 69.0433 25.1764C64.1745 25.1764 57.7468 29.6129 55.824 35.2484L55.8206 35.2518Z" fill="#19032B"></path>
    <path d="M94.1593 45.5053C91.3334 45.5053 89.2321 43.8849 89.2321 40.6475C89.2321 35.9095 93.9807 29.6745 96.4426 26.259C93.318 27.9376 90.2518 31.5348 87.4294 34.8921C83.0413 40.1096 79.3159 45.5053 76.5518 45.5053C75.2299 45.5053 74.3887 44.666 74.3887 43.2271C74.3887 39.4484 78.7734 33.0353 83.6422 27.3998C84.0645 26.9202 84.4834 26.742 84.8439 26.742C85.2045 26.742 85.4448 26.9818 85.4448 27.3415C85.4448 27.643 85.3246 27.9993 84.9057 28.4823C79.618 34.4775 76.1329 40.3529 76.1329 43.2922C76.1329 43.8917 76.3733 44.1898 76.9158 44.1898C78.4197 44.1898 82.3237 39.0921 86.4715 34.1178C90.499 29.3217 94.8254 24.7653 97.2289 24.7653C98.0083 24.7653 98.6092 25.2449 98.6092 25.7862C98.6092 26.026 98.489 26.3275 98.307 26.5673C96.2057 29.3868 91.0965 35.9198 91.0965 40.6577C91.0965 42.9359 92.4802 44.2549 94.2829 44.2549C97.7679 44.2549 101.916 40.5961 106.002 34.5426C106.18 34.2412 106.424 34.1213 106.603 34.1213C106.963 34.1213 107.203 34.4227 107.203 34.779C107.203 35.6766 100.652 45.5122 94.1627 45.5122L94.1593 45.5053Z" fill="#19032B"></path>
    <path d="M119.757 39.8082C116.752 43.347 113.205 46.1048 110.201 46.1048C106.654 46.1048 104.793 43.5286 104.793 39.6883C104.793 32.4323 113.387 24.0391 120.598 24.0391C123.901 24.0391 125.587 25.2381 127.029 26.7386C128.351 25.1182 129.494 24.0391 130.033 24.0391C130.514 24.0391 130.572 24.2789 130.572 24.7585C130.572 26.3789 125.765 33.1518 122.16 37.1086C121.439 38.6091 121.319 39.8082 121.319 41.0072C121.319 43.1655 122.459 44.1247 124.145 44.1247C127.75 44.1247 131.657 40.6475 135.802 34.5324C135.98 34.2309 136.221 34.111 136.403 34.111C136.763 34.111 137.003 34.4125 137.003 34.7688C137.003 35.6663 130.452 45.5019 123.963 45.5019C121.679 45.5019 119.695 44.0014 119.695 40.764C119.695 40.4625 119.753 40.1644 119.753 39.8047L119.757 39.8082ZM110.503 44.8441C113.806 44.8441 117.535 40.9455 120.78 36.629C121.981 33.9911 123.846 30.9318 125.649 28.4755C125.106 26.7352 123.547 25.0565 120.66 25.0565C114.17 25.0565 106.599 33.5697 106.599 39.6266C106.599 42.9257 107.863 44.8441 110.506 44.8441H110.503Z" fill="#19032B"></path>
  </g>
  <defs>
    <clipPath id="clip0_360_437">
      <rect width="137" height="50" fill="white"></rect>
    </clipPath>
  </defs>
</svg>
